<svg width="74" height="74" viewBox="0 0 74 74" fill="none" xmlns="http://www.w3.org/2000/svg">
<path d="M46.1936 2.98511C48.0935 7.77112 48.0934 7.77126 45.4045 12.1628C50.1905 10.263 50.1908 10.2628 54.5822 12.9515C52.6824 8.16554 52.6822 8.16569 55.3709 3.7741C50.5849 5.67411 50.5852 5.67397 46.1936 2.98511ZM16.3355 5.49518C14.6289 8.53612 14.6289 8.53612 11.1723 8.99529C14.2132 10.7021 14.2132 10.7019 14.6724 14.1587C16.379 11.1177 16.379 11.1177 19.8356 10.6586C16.7947 8.95194 16.7947 8.95194 16.3355 5.49518ZM27.3994 13.6155C27.2618 20.9271 27.2621 20.9271 21.3304 25.204C28.6418 25.3413 28.6419 25.3413 32.9189 31.2729C33.0562 23.9614 33.0562 23.9614 38.9877 19.6844C31.6762 19.5471 31.6762 19.5471 27.3992 13.6155H27.3994ZM55.0304 21.6927C55.0238 25.1798 55.0235 25.1795 52.2298 27.2664C55.7169 27.2732 55.7169 27.273 57.8038 30.0667C57.8106 26.5797 57.8105 26.5798 60.6041 24.4929C57.1172 24.4862 57.1173 24.4863 55.0304 21.6927ZM28.4242 33.8159C28.2559 33.8193 28.0876 33.8258 27.9195 33.8353C25.2326 33.9891 21.8683 35.0517 16.7263 37.0954L10.9861 62.6661C22.3299 59.6694 30.2044 59.4996 35.6995 61.9991V35.8018C33.087 34.528 31.1049 33.8652 28.9489 33.8164C28.7741 33.8128 28.5992 33.8127 28.4244 33.8161L28.4242 33.8159ZM46.1562 35.4665C45.746 35.4628 45.3357 35.4676 44.9257 35.4806C43.0742 35.5409 40.9311 35.8008 38.3003 36.1342V61.7358C44.5969 60.6048 53.7435 61.1287 63.0505 62.8293L57.301 37.2188C52.1118 36.0091 49.1221 35.4974 46.1562 35.4666V35.4665ZM46.487 37.9163C49.2171 37.9458 51.8133 38.3163 54.2494 38.6418L54.8907 41.0299C51.4537 40.4879 45.3565 40.3209 41.5263 40.8883L41.4344 38.3149C43.1628 38.0036 44.8489 37.8987 46.487 37.9163ZM10.2844 38.5895L8.74992 45.2385H12.2323L13.7247 38.5895H10.2844ZM60.275 38.5895L66.019 64.176L66.3426 65.6174L69.6077 65.5955L63.7029 38.5895H60.275ZM48.8777 46.9463C51.3337 46.9501 53.7441 47.0606 55.9809 47.2676L56.4902 49.7498C51.772 49.3046 46.0001 49.3322 41.6042 49.7498L41.5017 47.2676C43.9202 47.046 46.4216 46.9427 48.8777 46.9463ZM8.14983 47.8395L7.14909 52.176H10.6748L11.6482 47.8395H8.14983ZM47.8118 51.7771C48.4847 51.7802 49.183 51.7894 49.9387 51.8065L50.308 54.3355C47.4217 54.2674 43.4984 54.4164 41.6754 54.4872L41.5743 51.8878C44.0028 51.8166 45.793 51.7682 47.8118 51.7771ZM53.8064 51.8417C55.0014 51.8478 56.2196 51.89 57.2926 51.8517L57.6655 54.4157C56.4149 54.3706 54.071 54.2957 53.0313 54.3431L52.6256 51.8523C53.0191 51.8425 53.4127 51.839 53.8064 51.8417ZM6.549 54.777L3.94961 66.04L7.56795 66.0155L10.0907 54.777H6.549ZM50.3657 56.4894C53.1996 56.488 55.9532 56.6013 58.5243 56.8612L58.9573 59.8655C53.9992 59.2521 46.5631 58.7531 41.7437 59.3967L41.7234 56.8064C44.6169 56.6071 47.5316 56.4909 50.3657 56.4894ZM26.2859 62.856C21.9338 62.869 16.4699 63.7593 9.60584 65.712L8.56232 66.0087L35.6994 65.8251V64.9078C33.3528 63.5772 30.291 62.8442 26.286 62.856H26.2859ZM45.7123 63.7484C42.8752 63.758 40.3485 63.9563 38.3003 64.3528V65.8074L63.9682 65.6335C57.5623 64.3856 51.0851 63.73 45.7125 63.7484H45.7123ZM3.75781 68.6523V71.2539H70.2422V68.6523H3.75781Z" fill="#211A67"/>
</svg>
